#Comment line ignore any data following # character 
#Hierarchical Translation and Rotation (.htr) file 
[Header]	
#Header keywords are followed by a single value 
FileType HTR		#Single word string
DataType HTRS		#Translation followed by rotation and scale data
FileVersion 1		#integer
NumSegments 84		#integer
NumFrames 2		#integer
DataFrameRate 30		#integer, data frame rate in this file
EulerRotationOrder ZYX
CalibrationUnits mm
RotationUnits Degrees
GlobalAxisofGravity Y
BoneLengthAxis Y
ScaleFactor 1.00
[SegmentNames&Hierarchy]
#CHILD	PARENT
MASTER GLOBAL
root MASTER
chest root
L_mid_tent01 root
R_mid_tent01 root
spine01 root
Bip01_Neck chest
L_humerus chest
R_humerus chest
weapon_bone chest
Bip01_Head Bip01_Neck
eye_left_bone Bip01_Head
eye_right_bone Bip01_Head
L_forearm L_humerus
L_front_hand L_forearm
L_weapon_bone L_forearm
L_front_hand01_01 L_front_hand
L_front_hand02_01 L_front_hand
L_front_hand03_01 L_front_hand
L_front_hand01_02 L_front_hand01_01
L_front_hand02_02 L_front_hand02_01
L_front_hand03_02 L_front_hand03_01
R_forearm R_humerus
R_front_hand R_forearm
R_weapon_bone R_forearm
R_front_hand01_01 R_front_hand
R_front_hand02_01 R_front_hand
R_front_hand03_01 R_front_hand
R_front_hand01_02 R_front_hand01_01
R_front_hand02_02 R_front_hand02_01
R_front_hand03_02 R_front_hand03_01
null_rope01_connect L_mid_tent01
Rope1_Seg01 null_rope01_connect
Rope1_Seg02 Rope1_Seg01
Rope1_Seg03 Rope1_Seg02
Rope1_Seg04 Rope1_Seg03
Rope1_Seg05 Rope1_Seg04
Rope1_Seg06 Rope1_Seg05
Rope1_Seg07 Rope1_Seg06
Rope1_Seg09 Rope1_Seg07
L_mid_hand01 Rope1_Seg09
L_mid_hand02 Rope1_Seg09
L_mid_hand03 Rope1_Seg09
null_rope02_connect R_mid_tent01
Rope2_Seg01 null_rope02_connect
Rope2_Seg02 Rope2_Seg01
Rope2_Seg03 Rope2_Seg02
Rope2_Seg04 Rope2_Seg03
Rope2_Seg05 Rope2_Seg04
Rope2_Seg06 Rope2_Seg05
Rope2_Seg07 Rope2_Seg06
Rope2_Seg09 Rope2_Seg07
R_mid_hand01 Rope2_Seg09
R_mid_hand02 Rope2_Seg09
R_mid_hand03 Rope2_Seg09
spine02 spine01
spine03 spine02
pelvis spine03
null_rope03_connect pelvis
null_rope04_connect pelvis
Rope3_Seg01 null_rope03_connect
Rope3_Seg02 Rope3_Seg01
Rope3_Seg03 Rope3_Seg02
Rope3_Seg04 Rope3_Seg03
Rope3_Seg05 Rope3_Seg04
Rope3_Seg06 Rope3_Seg05
Rope3_Seg07 Rope3_Seg06
Rope3_Seg08 Rope3_Seg07
Rope3_Seg09 Rope3_Seg08
R_rear_hand01 Rope3_Seg09
R_rear_hand02 Rope3_Seg09
R_rear_hand03 Rope3_Seg09
Rope4_Seg01 null_rope04_connect
Rope4_Seg02 Rope4_Seg01
Rope4_Seg03 Rope4_Seg02
Rope4_Seg04 Rope4_Seg03
Rope4_Seg05 Rope4_Seg04
Rope4_Seg06 Rope4_Seg05
Rope4_Seg07 Rope4_Seg06
Rope4_Seg08 Rope4_Seg07
Rope4_Seg09 Rope4_Seg08
L_rear_hand01 Rope4_Seg09
L_rear_hand02 Rope4_Seg09
L_rear_hand03 Rope4_Seg09
[BasePosition]
#SegmentName Tx, Ty, Tz, Rx, Ry, Rz, BoneLength
MASTER 0.000000 0.000000 0.000000 -90.000000 0.000000 0.000000 10.000000 
root 0.000000 0.000000 0.000000 0.000000 0.000000 0.000000 10.000000 
chest 0.000000 0.000000 0.000000 0.000000 0.000000 0.000000 10.000000 
L_mid_tent01 0.000000 0.000000 0.000000 0.000000 0.000000 0.000000 10.000000 
R_mid_tent01 0.000000 0.000000 0.000000 0.000000 0.000000 0.000000 10.000000 
spine01 0.000000 0.000000 0.000000 0.000000 0.000000 0.000000 10.000000 
Bip01_Neck 0.000000 0.000000 0.000000 0.000000 0.000000 0.000000 10.000000 
L_humerus 0.000000 0.000000 0.000000 0.000000 0.000000 0.000000 10.000000 
R_humerus 0.000000 0.000000 0.000000 0.000000 0.000000 0.000000 10.000000 
weapon_bone 0.000000 0.000000 0.000000 0.000000 0.000000 0.000000 10.000000 
Bip01_Head 0.000000 0.000000 0.000000 0.000000 0.000000 0.000000 10.000000 
eye_left_bone 0.000000 0.000000 0.000000 0.000000 0.000000 0.000000 10.000000 
eye_right_bone 0.000000 0.000000 0.000000 0.000000 0.000000 0.000000 10.000000 
L_forearm 0.000000 0.000000 0.000000 0.000000 0.000000 0.000000 10.000000 
L_front_hand 0.000000 0.000000 0.000000 0.000000 0.000000 0.000000 10.000000 
L_weapon_bone 0.000000 0.000000 0.000000 0.000000 0.000000 0.000000 10.000000 
L_front_hand01_01 0.000000 0.000000 0.000000 0.000000 0.000000 0.000000 10.000000 
L_front_hand02_01 0.000000 0.000000 0.000000 0.000000 0.000000 0.000000 10.000000 
L_front_hand03_01 0.000000 0.000000 0.000000 0.000000 0.000000 0.000000 10.000000 
L_front_hand01_02 0.000000 0.000000 0.000000 0.000000 0.000000 0.000000 10.000000 
L_front_hand02_02 0.000000 0.000000 0.000000 0.000000 0.000000 0.000000 10.000000 
L_front_hand03_02 0.000000 0.000000 0.000000 0.000000 0.000000 0.000000 10.000000 
R_forearm 0.000000 0.000000 0.000000 0.000000 0.000000 0.000000 10.000000 
R_front_hand 0.000000 0.000000 0.000000 0.000000 0.000000 0.000000 10.000000 
R_weapon_bone 0.000000 0.000000 0.000000 0.000000 0.000000 0.000000 10.000000 
R_front_hand01_01 0.000000 0.000000 0.000000 0.000000 0.000000 0.000000 10.000000 
R_front_hand02_01 0.000000 0.000000 0.000000 0.000000 0.000000 0.000000 10.000000 
R_front_hand03_01 0.000000 0.000000 0.000000 0.000000 0.000000 0.000000 10.000000 
R_front_hand01_02 0.000000 0.000000 0.000000 0.000000 0.000000 0.000000 10.000000 
R_front_hand02_02 0.000000 0.000000 0.000000 0.000000 0.000000 0.000000 10.000000 
R_front_hand03_02 0.000000 0.000000 0.000000 0.000000 0.000000 0.000000 10.000000 
null_rope01_connect 0.000000 0.000000 0.000000 0.000000 0.000000 0.000000 10.000000 
Rope1_Seg01 0.000000 0.000000 0.000000 0.000000 0.000000 0.000000 10.000000 
Rope1_Seg02 0.000000 0.000000 0.000000 0.000000 0.000000 0.000000 10.000000 
Rope1_Seg03 0.000000 0.000000 0.000000 0.000000 0.000000 0.000000 10.000000 
Rope1_Seg04 0.000000 0.000000 0.000000 0.000000 0.000000 0.000000 10.000000 
Rope1_Seg05 0.000000 0.000000 0.000000 0.000000 0.000000 0.000000 10.000000 
Rope1_Seg06 0.000000 0.000000 0.000000 0.000000 0.000000 0.000000 10.000000 
Rope1_Seg07 0.000000 0.000000 0.000000 0.000000 0.000000 0.000000 10.000000 
Rope1_Seg09 0.000000 0.000000 0.000000 0.000000 0.000000 0.000000 10.000000 
L_mid_hand01 0.000000 0.000000 0.000000 0.000000 0.000000 0.000000 10.000000 
L_mid_hand02 0.000000 0.000000 0.000000 0.000000 0.000000 0.000000 10.000000 
L_mid_hand03 0.000000 0.000000 0.000000 0.000000 0.000000 0.000000 10.000000 
null_rope02_connect 0.000000 0.000000 0.000000 0.000000 0.000000 0.000000 10.000000 
Rope2_Seg01 0.000000 0.000000 0.000000 0.000000 0.000000 0.000000 10.000000 
Rope2_Seg02 0.000000 0.000000 0.000000 0.000000 0.000000 0.000000 10.000000 
Rope2_Seg03 0.000000 0.000000 0.000000 0.000000 0.000000 0.000000 10.000000 
Rope2_Seg04 0.000000 0.000000 0.000000 0.000000 0.000000 0.000000 10.000000 
Rope2_Seg05 0.000000 0.000000 0.000000 0.000000 0.000000 0.000000 10.000000 
Rope2_Seg06 0.000000 0.000000 0.000000 0.000000 0.000000 0.000000 10.000000 
Rope2_Seg07 0.000000 0.000000 0.000000 0.000000 0.000000 0.000000 10.000000 
Rope2_Seg09 0.000000 0.000000 0.000000 0.000000 0.000000 0.000000 10.000000 
R_mid_hand01 0.000000 0.000000 0.000000 0.000000 0.000000 0.000000 10.000000 
R_mid_hand02 0.000000 0.000000 0.000000 0.000000 0.000000 0.000000 10.000000 
R_mid_hand03 0.000000 0.000000 0.000000 0.000000 0.000000 0.000000 10.000000 
spine02 0.000000 0.000000 0.000000 0.000000 0.000000 0.000000 10.000000 
spine03 0.000000 0.000000 0.000000 0.000000 0.000000 0.000000 10.000000 
pelvis 0.000000 0.000000 0.000000 0.000000 0.000000 0.000000 10.000000 
null_rope03_connect 0.000000 0.000000 0.000000 0.000000 0.000000 0.000000 10.000000 
null_rope04_connect 0.000000 0.000000 0.000000 0.000000 0.000000 0.000000 10.000000 
Rope3_Seg01 0.000000 0.000000 0.000000 0.000000 0.000000 0.000000 10.000000 
Rope3_Seg02 0.000000 0.000000 0.000000 0.000000 0.000000 0.000000 10.000000 
Rope3_Seg03 0.000000 0.000000 0.000000 0.000000 0.000000 0.000000 10.000000 
Rope3_Seg04 0.000000 0.000000 0.000000 0.000000 0.000000 0.000000 10.000000 
Rope3_Seg05 0.000000 0.000000 0.000000 0.000000 0.000000 0.000000 10.000000 
Rope3_Seg06 0.000000 0.000000 0.000000 0.000000 0.000000 0.000000 10.000000 
Rope3_Seg07 0.000000 0.000000 0.000000 0.000000 0.000000 0.000000 10.000000 
Rope3_Seg08 0.000000 0.000000 0.000000 0.000000 0.000000 0.000000 10.000000 
Rope3_Seg09 0.000000 0.000000 0.000000 0.000000 0.000000 0.000000 10.000000 
R_rear_hand01 0.000000 0.000000 0.000000 0.000000 0.000000 0.000000 10.000000 
R_rear_hand02 0.000000 0.000000 0.000000 0.000000 0.000000 0.000000 10.000000 
R_rear_hand03 0.000000 0.000000 0.000000 0.000000 0.000000 0.000000 10.000000 
Rope4_Seg01 0.000000 0.000000 0.000000 0.000000 0.000000 0.000000 10.000000 
Rope4_Seg02 0.000000 0.000000 0.000000 0.000000 0.000000 0.000000 10.000000 
Rope4_Seg03 0.000000 0.000000 0.000000 0.000000 0.000000 0.000000 10.000000 
Rope4_Seg04 0.000000 0.000000 0.000000 0.000000 0.000000 0.000000 10.000000 
Rope4_Seg05 0.000000 0.000000 0.000000 0.000000 0.000000 0.000000 10.000000 
Rope4_Seg06 0.000000 0.000000 0.000000 0.000000 0.000000 0.000000 10.000000 
Rope4_Seg07 0.000000 0.000000 0.000000 0.000000 0.000000 0.000000 10.000000 
Rope4_Seg08 0.000000 0.000000 0.000000 0.000000 0.000000 0.000000 10.000000 
Rope4_Seg09 0.000000 0.000000 0.000000 0.000000 0.000000 0.000000 10.000000 
L_rear_hand01 0.000000 0.000000 0.000000 0.000000 0.000000 0.000000 10.000000 
L_rear_hand02 0.000000 0.000000 0.000000 0.000000 0.000000 0.000000 10.000000 
L_rear_hand03 0.000000 0.000000 0.000000 0.000000 0.000000 0.000000 10.000000 
#Beginning of Data. Separated by tabs
#Fr	Tx	Ty	Tz	Rx	Ry	Rz	SF
[MASTER]
23 315.453552 5326.057129 2971.723877 0.001660 0.001660 0.001660 6107.170898
24 266.103729 5575.389648 2958.185547 0.001660 0.001660 0.001660 6317.170410
[root]
23 373.990692 -121.419067 533.317261 -23.047762 0.668528 -71.765106 662.600159
24 411.231903 -120.610962 538.913269 -24.775780 -0.936291 -68.929474 688.539124
[chest]
23 -84.512650 -34.090519 0.000000 -3.139426 -10.812797 144.464828 91.129311
24 -84.512650 -34.090519 0.000000 -4.467213 -12.078387 147.285217 91.129311
[L_mid_tent01]
23 27.298923 22.179258 -249.918686 -11.292779 15.135134 59.719944 252.381668
24 27.298916 22.179258 -249.918686 -12.175673 14.539344 57.864174 252.381668
[R_mid_tent01]
23 23.228794 24.509907 226.238495 149.021240 -48.607582 60.006367 228.744751
24 23.228794 24.509907 226.238495 147.483505 -50.788136 59.131435 228.744751
[spine01]
23 -0.361383 -0.195265 0.000000 0.001755 0.001558 6.805979 0.410763
24 -0.361383 -0.195265 0.000000 0.001747 0.001568 6.201626 0.410763
[Bip01_Neck]
23 165.484543 71.581718 0.000119 176.643677 -1.657967 43.431911 180.302734
24 165.484543 71.581718 0.000119 176.643677 -1.657967 43.431911 180.302734
[L_humerus]
23 -13.983130 -135.272980 -120.471481 169.540817 37.831570 -95.902184 181.680161
24 -13.983130 -135.272980 -120.471481 170.302841 32.716415 -94.640549 181.680161
[R_humerus]
23 -13.983309 -135.273102 125.287651 -176.083893 -22.368666 -87.602043 184.909012
24 -13.983309 -135.273102 125.287651 -176.300552 -18.911671 -87.230843 184.909012
[weapon_bone]
23 235.964890 -300.705902 0.000000 0.000000 -89.951546 -128.212341 382.234833
24 235.964890 -300.705902 0.000000 0.000000 -89.951546 -128.212341 382.234833
[Bip01_Head]
23 213.344437 185.993073 8.196951 0.903627 0.911412 -40.654373 283.154510
24 213.347961 185.983246 8.324021 5.095721 -0.403695 -44.026844 283.154388
[eye_left_bone]
23 -24.626970 125.451866 -64.772606 0.000000 -90.000000 -99.840431 143.318359
24 -24.626970 125.451866 -64.772606 0.000000 -90.000000 -99.840431 143.318359
[eye_right_bone]
23 -24.626970 125.451866 64.327362 0.000000 -89.965736 80.156380 143.117676
24 -24.626970 125.451866 64.327362 0.000000 -89.965736 80.156380 143.117676
[L_forearm]
23 322.776093 0.000000 -0.000119 0.000434 -0.002307 -111.289604 322.776093
24 322.776093 0.000000 -0.000119 0.000434 -0.002307 -111.299591 322.776093
[L_front_hand]
23 241.149185 -0.042021 -3.300071 -178.667953 -1.835447 -27.422350 241.171753
24 241.149185 -0.042021 -3.300071 -178.667953 -1.835447 -27.422350 241.171753
[L_weapon_bone]
23 156.183838 0.000000 0.000000 0.000014 0.000007 0.000001 156.183838
24 156.183838 0.000000 0.000000 0.000014 0.000007 0.000001 156.183838
[L_front_hand01_01]
23 86.095154 20.947098 -0.655860 -0.366594 -0.477154 75.385574 88.609184
24 86.095154 20.947098 -0.655860 -0.366594 -0.477154 75.385574 88.609184
[L_front_hand02_01]
23 86.935165 -11.437475 24.513514 154.399796 -59.883835 -61.369587 91.046425
24 86.935165 -11.437475 24.513514 154.399796 -59.883835 -61.369587 91.046425
[L_front_hand03_01]
23 86.637497 -14.123976 -20.424902 -153.913849 58.118122 -62.702866 90.126129
24 86.637497 -14.123976 -20.424902 -153.913849 58.118122 -62.702866 90.126129
[L_front_hand01_02]
23 71.020905 -0.000179 0.000030 0.000331 -0.002324 -106.206635 71.020905
24 71.020905 -0.000179 0.000030 0.000332 -0.002324 -106.268463 71.020905
[L_front_hand02_02]
23 71.020927 -0.000119 0.000060 0.000331 -0.002324 -106.206635 71.020927
24 71.020927 -0.000119 0.000060 0.000332 -0.002324 -106.268463 71.020927
[L_front_hand03_02]
23 71.020905 -0.000060 0.000060 0.000331 -0.002324 -106.206635 71.020905
24 71.020905 -0.000060 0.000060 0.000332 -0.002324 -106.268463 71.020905
[R_forearm]
23 322.776428 -0.000060 0.000030 0.201002 0.068477 -109.950027 322.776428
24 322.776428 -0.000060 0.000030 0.201000 0.068484 -109.954063 322.776428
[R_front_hand]
23 238.847015 -0.006795 2.210259 -2.635298 -10.645461 -26.312506 238.857239
24 238.847015 -0.006795 2.210259 -2.635298 -10.645461 -26.312506 238.857239
[R_weapon_bone]
23 155.664093 0.002503 -0.000030 0.003487 0.001180 -90.988930 155.664078
24 155.664093 0.002503 -0.000030 0.003487 0.001180 -90.988930 155.664078
[R_front_hand01_01]
23 87.624611 14.231146 22.918642 -154.633499 -59.950619 61.746044 91.683487
24 87.624611 14.231146 22.918642 -154.633499 -59.950619 61.746044 91.683487
[R_front_hand02_01]
23 89.356956 14.367283 -19.491137 154.602661 58.302849 63.744389 92.579636
24 89.356956 14.367283 -19.491137 154.602661 58.302849 63.744389 92.579636
[R_front_hand03_01]
23 87.286232 -22.307278 -0.143439 0.162155 -0.423168 -75.767921 90.091743
24 87.286232 -22.307278 -0.143439 0.162155 -0.423168 -75.767921 90.091743
[R_front_hand01_02]
23 71.020905 0.000060 0.000119 0.002323 -0.000334 106.381714 71.020905
24 71.020905 0.000060 0.000119 0.002323 -0.000334 106.381714 71.020905
[R_front_hand02_02]
23 71.020844 -0.000030 -0.000119 0.002323 -0.000334 106.381714 71.020836
24 71.020844 -0.000030 -0.000119 0.002323 -0.000334 106.381714 71.020836
[R_front_hand03_02]
23 71.020905 0.000000 0.000030 0.002323 -0.000334 106.381714 71.020905
24 71.020905 0.000000 0.000030 0.002323 -0.000334 106.381714 71.020905
[null_rope01_connect]
23 328.732483 0.000000 -0.000238 17.669340 -38.442642 3.585739 328.732483
24 328.732483 0.000000 -0.000238 22.699337 -38.286163 1.260970 328.732483
[Rope1_Seg01]
23 0.000038 -0.000410 0.000000 -7.621966 47.140442 174.614731 0.000412
24 0.000038 -0.000427 0.000000 -17.907831 51.153091 160.903046 0.000428
[Rope1_Seg02]
23 139.999863 -0.000179 0.000000 -0.772208 8.508621 -5.592668 139.999863
24 139.999863 -0.000179 0.000000 -4.507302 17.882317 0.624956 139.999863
[Rope1_Seg03]
23 139.999924 0.000060 -0.000060 -1.803793 11.722808 -10.649757 139.999924
24 139.999924 0.000060 -0.000060 -10.302382 22.087379 2.367600 139.999924
[Rope1_Seg04]
23 139.999924 -0.000060 -0.000119 -24.448591 32.466202 -15.102695 139.999924
24 139.999924 -0.000060 -0.000119 -27.060095 37.488907 14.709176 139.999924
[Rope1_Seg05]
23 139.999832 0.000119 -0.000060 -66.104263 40.143967 7.670093 139.999832
24 139.999832 0.000119 -0.000060 -14.288846 14.133675 18.030857 139.999832
[Rope1_Seg06]
23 139.999954 0.000119 -0.000060 -12.421292 3.320046 12.597967 139.999954
24 139.999954 0.000119 -0.000060 -4.107904 3.055348 7.283519 139.999954
[Rope1_Seg07]
23 139.999985 0.000060 0.000000 -3.544859 0.191886 5.183062 139.999985
24 139.999985 0.000060 0.000000 -1.907559 1.324639 3.952605 139.999985
[Rope1_Seg09]
23 121.602913 0.000119 -0.000089 -89.793175 -1.359789 0.847147 121.602913
24 121.602913 0.000119 -0.000089 -89.793175 -1.359789 0.847147 121.602913
[L_mid_hand01]
23 103.859421 1.038730 8.195221 129.753738 -67.188759 -38.008968 104.187431
24 103.859421 1.038730 8.195221 130.544373 -67.584534 -38.866943 104.187431
[L_mid_hand02]
23 105.572853 -4.139662 -10.864139 -168.447937 43.306499 -72.811859 106.211075
24 105.572853 -4.139662 -10.864139 -168.923172 43.409309 -73.498886 106.211075
[L_mid_hand03]
23 104.641464 17.579376 -3.913581 -6.178542 17.755547 74.357048 106.179977
24 104.641464 17.579376 -3.913581 -6.012627 17.808174 74.893669 106.179977
[null_rope02_connect]
23 328.732849 0.000179 -0.000119 -132.593124 -16.795105 -22.485018 328.732849
24 328.732849 0.000179 -0.000119 -128.596924 -18.842714 -22.152903 328.732849
[Rope2_Seg01]
23 0.000083 -0.000305 0.000000 -28.250402 -27.915253 -171.616562 0.000316
24 0.000083 -0.000324 0.000000 -27.233095 -25.448477 -174.323593 0.000335
[Rope2_Seg02]
23 139.999741 -0.000060 -0.000119 5.542278 -5.742353 -11.289600 139.999756
24 139.999741 -0.000060 -0.000119 6.516393 -5.491119 -11.537278 139.999756
[Rope2_Seg03]
23 140.000107 0.000030 0.000000 8.678638 -11.322223 -17.646751 140.000107
24 140.000107 0.000030 0.000000 10.195032 -11.342895 -17.833679 140.000107
[Rope2_Seg04]
23 139.999802 0.000000 -0.000060 8.212172 -20.742191 -19.878765 139.999802
24 139.999802 0.000000 -0.000060 9.660436 -21.482262 -19.728191 139.999802
[Rope2_Seg05]
23 139.999985 -0.000060 0.000119 1.419964 -4.848015 -12.742741 139.999985
24 139.999985 -0.000060 0.000119 1.855785 -3.433201 -12.489318 139.999985
[Rope2_Seg06]
23 139.999893 -0.000030 -0.000119 1.760592 11.484969 -22.797689 139.999893
24 139.999893 -0.000030 -0.000119 1.477916 12.907664 -18.212616 139.999893
[Rope2_Seg07]
23 139.999893 0.000060 -0.000060 12.361151 5.428665 -25.787916 139.999893
24 139.999893 0.000060 -0.000060 8.225464 5.593070 -17.284420 139.999893
[Rope2_Seg09]
23 121.338966 0.000089 -0.000060 33.793236 -1.359788 -0.847141 121.338966
24 121.338966 0.000089 -0.000060 33.793236 -1.359788 -0.847141 121.338966
[R_mid_hand01]
23 104.680779 11.144459 -10.335981 -23.980085 42.262276 59.248211 105.778534
24 104.680779 11.144459 -10.335981 -21.077972 43.559654 63.514454 105.778534
[R_mid_hand02]
23 104.070427 2.443552 8.231699 59.529942 -60.717213 27.702374 104.424065
24 104.070427 2.443552 8.231699 56.113041 -63.580791 31.561995 104.424065
[R_mid_hand03]
23 106.028137 -11.221827 -5.996406 -174.753189 14.937832 -67.669350 106.788818
24 106.028137 -11.221827 -5.996406 -175.658295 15.220737 -71.161560 106.788818
[spine02]
23 129.756927 0.001550 0.000119 0.548967 -4.022374 -15.629806 129.756927
24 129.756927 0.001550 0.000119 0.548909 -4.022382 -15.628138 129.756927
[spine03]
23 78.613823 0.081682 -4.898996 2.008082 3.774152 18.156471 78.766365
24 78.613815 0.081685 -4.898996 2.008453 3.773954 18.167753 78.766357
[pelvis]
23 169.435242 0.051022 0.000000 7.181864 -0.913073 0.757078 169.435257
24 169.435242 0.051022 0.000000 7.293056 -0.864836 -0.167438 169.435257
[null_rope03_connect]
23 -1.257226 -2.466202 137.391083 3.654768 -14.102639 61.147350 137.418976
24 -1.257226 -2.466202 137.391083 6.598609 -14.777720 59.624165 137.418976
[null_rope04_connect]
23 -1.259640 -2.480268 -137.844437 3.654768 -14.102639 61.147350 137.872513
24 -1.259640 -2.480268 -137.844437 6.598609 -14.777720 59.624165 137.872513
[Rope3_Seg01]
23 0.000000 0.000000 0.000000 25.495182 -52.089695 -80.872887 0.000000
24 0.000000 0.000000 0.000000 30.729868 -49.723877 -88.706802 0.000000
[Rope3_Seg02]
23 139.999924 -0.000119 0.000060 1.030951 4.186872 12.844797 139.999924
24 139.999924 -0.000119 0.000060 1.055819 6.397784 12.394211 139.999924
[Rope3_Seg03]
23 139.999924 -0.000119 0.000119 0.310172 4.973979 14.379099 139.999924
24 139.999924 -0.000119 0.000119 0.895205 7.097102 15.285124 139.999924
[Rope3_Seg04]
23 139.999924 0.000119 0.000000 -0.627023 4.147452 11.584417 139.999924
24 139.999924 0.000119 0.000000 -0.335254 5.701612 14.103693 139.999924
[Rope3_Seg05]
23 139.999924 -0.000238 0.000060 -2.871930 3.759215 15.023626 139.999924
24 139.999924 -0.000238 0.000060 2.953180 8.484928 6.236176 139.999924
[Rope3_Seg06]
23 139.999893 -0.000119 -0.000060 -22.409464 4.818152 30.304754 139.999893
24 139.999893 -0.000119 -0.000060 11.065352 15.220769 4.582834 139.999893
[Rope3_Seg07]
23 139.999771 0.000060 -0.000119 -66.652184 -5.822412 24.859533 139.999771
24 139.999771 0.000060 -0.000119 19.117573 16.884258 4.629097 139.999771
[Rope3_Seg08]
23 139.999985 -0.000060 0.000000 -21.959009 -11.170164 2.200735 139.999985
24 139.999985 -0.000060 0.000000 16.798325 9.948890 -0.618252 139.999985
[Rope3_Seg09]
23 90.185997 -0.000179 -0.000060 89.793228 -1.359877 -0.847183 90.185997
24 90.185997 -0.000179 -0.000060 89.793228 -1.359877 -0.847183 90.185997
[R_rear_hand01]
23 103.366196 -6.073594 -10.757982 -174.043228 23.976633 -65.003006 104.101845
24 103.366196 -6.073594 -10.757982 -175.487595 24.273657 -68.532684 104.101845
[R_rear_hand02]
23 100.509819 12.039542 -7.992327 -18.533081 34.659100 62.503910 101.543350
24 100.509819 12.039542 -7.992327 -16.360678 35.627857 66.274040 101.543350
[R_rear_hand03]
23 101.539970 5.215704 5.435467 76.952393 -63.971798 15.629129 101.819031
24 101.539970 5.215704 5.435467 75.232681 -67.112556 17.511589 101.819031
[Rope4_Seg01]
23 0.000004 -0.000410 -0.000153 -143.881058 37.261742 -161.144028 0.000437
24 0.000003 -0.000427 -0.000153 -157.232300 39.842083 -168.754028 0.000453
[Rope4_Seg02]
23 139.999985 0.000060 0.000119 -8.130146 -13.680077 2.077086 139.999985
24 139.999985 0.000060 0.000119 -0.438901 -9.887781 -3.862972 139.999985
[Rope4_Seg03]
23 139.999924 0.000000 -0.000238 -5.001015 -18.571299 0.182794 139.999924
24 139.999924 0.000000 -0.000238 -0.069369 -14.429049 -5.585108 139.999924
[Rope4_Seg04]
23 139.999985 0.000000 0.000119 -1.603529 -17.557535 -1.402325 139.999985
24 139.999985 0.000000 0.000119 0.072383 -18.407993 -6.035074 139.999985
[Rope4_Seg05]
23 139.999802 -0.000060 -0.000119 0.282684 -17.863035 -1.915256 139.999802
24 139.999802 -0.000060 -0.000119 1.763408 -13.916718 -10.997650 139.999802
[Rope4_Seg06]
23 139.999924 0.000000 0.000060 2.843347 -21.126471 -2.285072 139.999924
24 139.999924 0.000000 0.000060 -0.040738 -10.054101 -11.278061 139.999924
[Rope4_Seg07]
23 139.999802 0.000000 0.000000 4.805456 -16.211748 -1.028153 139.999802
24 139.999802 0.000000 0.000000 -0.777925 -7.628453 -7.068985 139.999802
[Rope4_Seg08]
23 139.999924 0.000000 0.000119 1.520113 -6.463101 0.128835 139.999924
24 139.999924 0.000000 0.000119 -2.518217 -4.424641 -4.263543 139.999924
[Rope4_Seg09]
23 90.185791 0.000060 0.000060 -135.617828 2.228885 0.850567 90.185791
24 90.185791 0.000060 0.000060 -135.617828 2.228885 0.850567 90.185791
[L_rear_hand01]
23 101.696655 -8.392275 -7.654577 -13.808597 -36.569187 109.397408 102.329041
24 101.696655 -8.392275 -7.654577 -13.120160 -36.794415 108.245636 102.329041
[L_rear_hand02]
23 102.726799 -1.568258 5.773216 72.647568 70.590691 159.713425 102.900848
24 102.726799 -1.568258 5.773216 71.814774 71.499886 158.834518 102.900848
[L_rear_hand03]
23 104.552910 9.721220 -10.420293 -177.121994 -24.509382 -107.501068 105.519653
24 104.552910 9.721220 -10.420293 -177.558792 -24.551929 -106.459061 105.519653
